<svg width="18" height="18" viewBox="0 0 18 18" fill="none" xmlns="http://www.w3.org/2000/svg">
<path d="M12.805 17.3326C12.8092 17.3326 12.8242 17.3326 12.8283 17.3326C13.2683 17.3326 13.6842 17.1592 13.9992 16.8442L16.2592 14.5842C16.585 14.2584 16.585 13.7317 16.2592 13.4059L12.9259 10.0726C12.6 9.74675 12.0733 9.74675 11.7475 10.0726L10.4192 11.4009C9.80335 11.2176 8.65418 10.8009 7.92585 10.0726C7.19752 9.34425 6.78085 8.19508 6.59752 7.57925L7.92585 6.25092C8.25168 5.92508 8.25168 5.39842 7.92585 5.07258L4.59252 1.73925C4.28002 1.42675 3.72668 1.42675 3.41418 1.73925L1.15502 3.99925C0.838351 4.31591 0.660018 4.75091 0.666684 5.19508C0.685851 6.38175 1.00002 10.5034 4.24835 13.7517C7.49668 17.0001 11.6183 17.3134 12.805 17.3326ZM4.00418 3.50675L6.15918 5.66175L5.08168 6.73925C4.88252 6.93758 4.79752 7.22425 4.85585 7.49925C4.87585 7.59508 5.36502 9.86758 6.74835 11.2509C8.13168 12.6342 10.4042 13.1234 10.5 13.1434C10.7775 13.2017 11.0617 13.1167 11.26 12.9176L12.3375 11.8401L14.4925 13.9951L12.8208 15.6659C11.7808 15.6484 8.22252 15.3692 5.42668 12.5726C2.62168 9.76758 2.35002 6.19675 2.33335 5.17758L4.00418 3.50675ZM15.6659 8.16591H17.3325C17.3325 3.89091 14.105 0.666748 9.82418 0.666748V2.33341C13.2092 2.33341 15.6659 4.78591 15.6659 8.16591Z" fill="#6366F1"/>
</svg>
